<svg width="24" height="24" viewBox="0 0 24 24" fill="none" xmlns="http://www.w3.org/2000/svg">
<path d="M6.32999 9.795C6.54092 10.0057 6.82686 10.124 7.12499 10.124C7.42311 10.124 7.70905 10.0057 7.91999 9.795L12 5.715L16.08 9.795C16.183 9.90553 16.3072 9.99419 16.4452 10.0557C16.5832 10.1172 16.7321 10.1502 16.8832 10.1529C17.0343 10.1556 17.1843 10.1278 17.3244 10.0712C17.4645 10.0146 17.5917 9.93039 17.6985 9.82356C17.8054 9.71673 17.8896 9.58948 17.9462 9.4494C18.0028 9.30932 18.0305 9.15927 18.0279 9.00822C18.0252 8.85716 17.9921 8.70819 17.9307 8.57019C17.8692 8.4322 17.7805 8.30799 17.67 8.205L12.795 3.33C12.584 3.11933 12.2981 3.00099 12 3.00099C11.7019 3.00099 11.4159 3.11933 11.205 3.33L6.32999 8.205C6.11931 8.41594 6.00098 8.70188 6.00098 9C6.00098 9.29813 6.11931 9.58406 6.32999 9.795ZM6.32999 14.205C6.54092 13.9943 6.82686 13.876 7.12499 13.876C7.42311 13.876 7.70905 13.9943 7.91999 14.205L12 18.285L16.08 14.205C16.183 14.0945 16.3072 14.0058 16.4452 13.9443C16.5832 13.8828 16.7321 13.8498 16.8832 13.8471C17.0343 13.8444 17.1843 13.8722 17.3244 13.9288C17.4645 13.9854 17.5917 14.0696 17.6985 14.1764C17.8054 14.2833 17.8896 14.4105 17.9462 14.5506C18.0028 14.6907 18.0305 14.8407 18.0279 14.9918C18.0252 15.1428 17.9921 15.2918 17.9307 15.4298C17.8692 15.5678 17.7805 15.692 17.67 15.795L12.795 20.67C12.584 20.8807 12.2981 20.999 12 20.999C11.7019 20.999 11.4159 20.8807 11.205 20.67L6.32999 15.795C6.11931 15.5841 6.00098 15.2981 6.00098 15C6.00098 14.7019 6.11931 14.4159 6.32999 14.205Z" fill="black"/>
</svg>
