<svg width="45" height="45" viewBox="0 0 45 45" fill="none" xmlns="http://www.w3.org/2000/svg">
<path d="M22.0501 2.75626C11.3955 2.75626 2.75635 11.3954 2.75635 22.05C2.75635 32.7046 11.3955 41.3438 22.0501 41.3438C32.7047 41.3438 41.3438 32.7046 41.3438 22.05C41.3438 11.3954 32.7047 2.75626 22.0501 2.75626ZM22.0501 38.0707C13.2043 38.0707 6.02939 30.8958 6.02939 22.05C6.02939 13.2042 13.2043 6.0293 22.0501 6.0293C30.8959 6.0293 38.0708 13.2042 38.0708 22.05C38.0708 30.8958 30.8959 38.0707 22.0501 38.0707Z" fill="black"/>
<path d="M19.9829 14.4703C19.9829 15.0186 20.2007 15.5444 20.5884 15.932C20.976 16.3197 21.5018 16.5375 22.0501 16.5375C22.5984 16.5375 23.1241 16.3197 23.5118 15.932C23.8995 15.5444 24.1173 15.0186 24.1173 14.4703C24.1173 13.9221 23.8995 13.3963 23.5118 13.0086C23.1241 12.6209 22.5984 12.4031 22.0501 12.4031C21.5018 12.4031 20.976 12.6209 20.5884 13.0086C20.2007 13.3963 19.9829 13.9221 19.9829 14.4703ZM23.0837 19.2938H21.0165C20.827 19.2938 20.672 19.4488 20.672 19.6383V31.3524C20.672 31.5418 20.827 31.6969 21.0165 31.6969H23.0837C23.2732 31.6969 23.4282 31.5418 23.4282 31.3524V19.6383C23.4282 19.4488 23.2732 19.2938 23.0837 19.2938Z" fill="black"/>
</svg>
