<svg width="50" height="50" viewBox="0 0 50 50" fill="#F08383" xmlns="http://www.w3.org/2000/svg">
<path d="M40.6942 25.942C39.9868 25.5493 39.2395 25.2335 38.4649 25C39.2395 24.7665 39.9868 24.4507 40.6942 24.058C41.4938 23.5963 42.1947 22.9817 42.7568 22.2491C43.3189 21.5166 43.7312 20.6805 43.9702 19.7886C44.2092 18.8967 44.2702 17.9665 44.1496 17.051C44.0291 16.1355 43.7295 15.2528 43.2678 14.4531C42.8061 13.6535 42.1914 12.9526 41.4589 12.3905C40.7263 11.8284 39.8903 11.4161 38.9984 11.1771C38.1065 10.9381 37.1762 10.8771 36.2608 10.9976C35.3453 11.1182 34.4626 11.4178 33.6629 11.8795C32.9691 12.2957 32.322 12.785 31.7324 13.3391C31.9175 12.5515 32.0177 11.7464 32.0313 10.9375C32.0313 9.0727 31.2905 7.28427 29.9719 5.96566C28.6532 4.64704 26.8648 3.90625 25 3.90625C23.1352 3.90625 21.3468 4.64704 20.0282 5.96566C18.7096 7.28427 17.9688 9.0727 17.9688 10.9375C17.9824 11.7463 18.0825 12.5514 18.2676 13.3389C17.6781 12.7848 17.0309 12.2955 16.3371 11.8793C14.7221 10.9469 12.8029 10.6942 11.0016 11.1769C9.20031 11.6596 7.66454 12.838 6.73214 14.453C5.79974 16.068 5.54708 17.9873 6.02975 19.7886C6.51242 21.5898 7.69088 23.1256 9.30587 24.058C10.0132 24.4507 10.7606 24.7665 11.5352 25C10.7606 25.2335 10.0132 25.5493 9.30587 25.942C7.6909 26.8744 6.51247 28.4102 6.02982 30.2114C5.54717 32.0127 5.79984 33.9319 6.73224 35.5469C7.66464 37.1618 9.2004 38.3403 11.0017 38.8229C12.8029 39.3056 14.7222 39.0529 16.3371 38.1205C17.0309 37.7043 17.6781 37.215 18.2676 36.6609C18.0825 37.4485 17.9824 38.2536 17.9688 39.0625C17.9688 40.9273 18.7096 42.7157 20.0282 44.0343C21.3468 45.353 23.1352 46.0938 25 46.0938C26.8648 46.0938 28.6532 45.353 29.9719 44.0343C31.2905 42.7157 32.0313 40.9273 32.0313 39.0625C32.0177 38.2537 31.9175 37.4486 31.7324 36.6611C32.322 37.2152 32.9692 37.7045 33.6629 38.1207C35.2779 39.0531 37.1971 39.3058 38.9984 38.8231C40.7997 38.3404 42.3355 37.162 43.2679 35.547C44.2003 33.932 44.4529 32.0127 43.9703 30.2114C43.4876 28.4102 42.3092 26.8744 40.6942 25.942V25.942ZM25 29.6875C24.0729 29.6875 23.1666 29.4126 22.3958 28.8975C21.6249 28.3824 21.0241 27.6504 20.6693 26.7938C20.3145 25.9373 20.2217 24.9948 20.4026 24.0855C20.5835 23.1762 21.0299 22.341 21.6854 21.6854C22.341 21.0299 23.1762 20.5834 24.0855 20.4026C24.9948 20.2217 25.9373 20.3145 26.7938 20.6693C27.6504 21.0241 28.3825 21.6249 28.8975 22.3958C29.4126 23.1666 29.6875 24.0729 29.6875 25C29.6861 26.2428 29.1918 27.4342 28.313 28.313C27.4343 29.1918 26.2428 29.6861 25 29.6875Z" fill="#F08383"/>
</svg>
