<svg width="45" height="46" viewBox="0 0 45 46" fill="none" xmlns="http://www.w3.org/2000/svg">
<g clip-path="url(#clip0_72_77)">
<path fill-rule="evenodd" clip-rule="evenodd" d="M2.98169 23.0113C2.98169 28.128 5.01432 33.0352 8.63241 36.6533C12.2505 40.2714 17.1577 42.304 22.2745 42.304C27.3912 42.304 32.2984 40.2714 35.9165 36.6533C39.5346 33.0352 41.5672 28.128 41.5672 23.0113C41.5672 17.8945 39.5346 12.9873 35.9165 9.36923C32.2984 5.75114 27.3912 3.71851 22.2745 3.71851C17.1577 3.71851 12.2505 5.75114 8.63241 9.36923C5.01432 12.9873 2.98169 17.8945 2.98169 23.0113ZM44.3233 23.0113C44.3233 28.859 42.0003 34.4672 37.8654 38.6022C33.7304 42.7371 28.1222 45.0601 22.2745 45.0601C16.4267 45.0601 10.8185 42.7371 6.68355 38.6022C2.54859 34.4672 0.225586 28.859 0.225586 23.0113C0.225586 17.1635 2.54859 11.5553 6.68355 7.42037C10.8185 3.2854 16.4267 0.962402 22.2745 0.962402C28.1222 0.962402 33.7304 3.2854 37.8654 7.42037C42.0003 11.5553 44.3233 17.1635 44.3233 23.0113ZM12.6281 21.6332C12.2626 21.6332 11.9121 21.7784 11.6536 22.0368C11.3952 22.2953 11.25 22.6458 11.25 23.0113C11.25 23.3768 11.3952 23.7273 11.6536 23.9857C11.9121 24.2441 12.2626 24.3893 12.6281 24.3893H28.5942L22.6768 30.3039C22.5487 30.4321 22.4471 30.5842 22.3777 30.7516C22.3084 30.919 22.2727 31.0984 22.2727 31.2796C22.2727 31.4608 22.3084 31.6402 22.3777 31.8076C22.4471 31.975 22.5487 32.1271 22.6768 32.2553C22.805 32.3834 22.9571 32.485 23.1245 32.5544C23.2919 32.6237 23.4713 32.6594 23.6525 32.6594C23.8337 32.6594 24.0131 32.6237 24.1805 32.5544C24.3479 32.485 24.5 32.3834 24.6282 32.2553L32.8965 23.9869C33.0248 23.8589 33.1267 23.7069 33.1961 23.5394C33.2656 23.372 33.3014 23.1925 33.3014 23.0113C33.3014 22.83 33.2656 22.6505 33.1961 22.4831C33.1267 22.3157 33.0248 22.1636 32.8965 22.0356L24.6282 13.7673C24.5 13.6392 24.3479 13.5375 24.1805 13.4682C24.0131 13.3988 23.8337 13.3632 23.6525 13.3632C23.4713 13.3632 23.2919 13.3988 23.1245 13.4682C22.9571 13.5375 22.805 13.6392 22.6768 13.7673C22.5487 13.8954 22.4471 14.0475 22.3777 14.2149C22.3084 14.3823 22.2727 14.5618 22.2727 14.7429C22.2727 14.9241 22.3084 15.1036 22.3777 15.271C22.4471 15.4384 22.5487 15.5905 22.6768 15.7186L28.5942 21.6332H12.6281Z" fill="black"/>
</g>
<defs>
<clipPath id="clip0_72_77">
<rect width="44.0977" height="44.0977" fill="white" transform="translate(0.225586 0.962402)"/>
</clipPath>
</defs>
</svg>
