<svg width="44" height="44" viewBox="0 0 44 44" fill="none" xmlns="http://www.w3.org/2000/svg">
<g filter="url(#filter0_i_12_85)">
<path d="M26.6211 1L26.6227 1C26.6966 0.999869 26.7698 1.01431 26.8381 1.04249L27.2189 0.119331L26.8381 1.04249C26.9062 1.07058 26.9681 1.11176 27.0204 1.1637C27.0205 1.16389 27.0207 1.16407 27.0209 1.16425L42.4887 16.632C42.4887 16.632 42.4887 16.6321 42.4888 16.6321C42.5941 16.7376 42.6533 16.8806 42.6533 17.0297C42.6533 17.1788 42.5941 17.3218 42.4888 17.4273C41.2433 18.6727 39.6934 18.9719 38.499 18.9719C38.0125 18.9719 37.5752 18.9223 37.2272 18.8638L36.7189 18.7784L36.3544 19.1429L26.5606 28.9366L26.1611 29.3362L26.2972 29.8846C26.5409 30.8666 26.6991 31.8678 26.77 32.8771C26.9084 34.9937 26.6438 37.6909 24.8107 39.524C24.7053 39.6295 24.5622 39.6887 24.4131 39.6887C24.2639 39.6887 24.1209 39.6295 24.0154 39.524L23.3084 40.2313L24.0154 39.524L15.1747 30.6865L14.4676 29.9797L13.7606 30.6866L3.81689 40.6304C3.60133 40.846 2.73426 41.4998 1.81291 42.0342C1.66187 42.1218 1.51602 42.2022 1.3776 42.2742C1.4497 42.1355 1.53026 41.9893 1.61803 41.8379C2.15278 40.9155 2.806 40.0499 3.01991 39.8371L3.02173 39.8352L12.9655 29.8915L13.6725 29.1845L12.9656 28.4774L4.1281 19.6368L4.12808 19.6368C4.02263 19.5313 3.96339 19.3882 3.96339 19.2391C3.96339 19.09 4.02259 18.947 4.12798 18.8415C5.96163 17.0078 8.65982 16.7407 10.7743 16.882C11.7838 16.9529 12.7852 17.1111 13.7674 17.3549L14.3158 17.4911L14.7154 17.0916L24.5091 7.30097L24.8754 6.93485L24.7877 6.42446C24.7155 6.00394 24.6785 5.57812 24.6771 5.15145C24.6774 3.96127 24.9764 2.41216 26.2243 1.16388C26.3297 1.05895 26.4724 1.00003 26.6211 1Z" fill="#F08383" stroke="black" stroke-width="2"/>
</g>
<defs>
<filter id="filter0_i_12_85" x="0" y="0" width="47.6533" height="47.6521" filterUnits="userSpaceOnUse" color-interpolation-filters="sRGB">
<feFlood flood-opacity="0" result="BackgroundImageFix"/>
<feBlend mode="normal" in="SourceGraphic" in2="BackgroundImageFix" result="shape"/>
<feColorMatrix in="SourceAlpha" type="matrix" values="0 0 0 0 0 0 0 0 0 0 0 0 0 0 0 0 0 0 127 0" result="hardAlpha"/>
<feOffset dx="5" dy="10"/>
<feGaussianBlur stdDeviation="2"/>
<feComposite in2="hardAlpha" operator="arithmetic" k2="-1" k3="1"/>
<feColorMatrix type="matrix" values="0 0 0 0 0 0 0 0 0 0 0 0 0 0 0 0 0 0 0.25 0"/>
<feBlend mode="normal" in2="shape" result="effect1_innerShadow_12_85"/>
</filter>
</defs>
</svg>
