<svg width="45" height="46" viewBox="0 0 45 46" fill="none" xmlns="http://www.w3.org/2000/svg">
<path fill-rule="evenodd" clip-rule="evenodd" d="M41.9282 23.0113C41.9282 17.8945 39.8956 12.9873 36.2775 9.36924C32.6594 5.75114 27.7522 3.71851 22.6355 3.71851C17.5187 3.71851 12.6115 5.75114 8.99341 9.36924C5.37532 12.9873 3.34269 17.8945 3.34269 23.0113C3.34269 28.128 5.37532 33.0352 8.99341 36.6533C12.6115 40.2714 17.5187 42.304 22.6355 42.304C27.7522 42.304 32.6594 40.2714 36.2775 36.6533C39.8956 33.0352 41.9282 28.128 41.9282 23.0113ZM0.586582 23.0113C0.586582 17.1636 2.90958 11.5553 7.04455 7.42037C11.1795 3.2854 16.7877 0.962406 22.6355 0.962406C28.4832 0.962406 34.0914 3.2854 38.2264 7.42037C42.3613 11.5553 44.6843 17.1636 44.6843 23.0113C44.6843 28.859 42.3613 34.4672 38.2264 38.6022C34.0914 42.7372 28.4832 45.0602 22.6355 45.0602C16.7877 45.0602 11.1795 42.7372 7.04455 38.6022C2.90958 34.4672 0.586582 28.859 0.586582 23.0113ZM32.2818 24.3893C32.6473 24.3893 32.9978 24.2441 33.2563 23.9857C33.5147 23.7273 33.6599 23.3768 33.6599 23.0113C33.6599 22.6458 33.5147 22.2953 33.2563 22.0368C32.9978 21.7784 32.6473 21.6332 32.2818 21.6332H16.3157L22.2331 15.7186C22.3612 15.5905 22.4628 15.4384 22.5322 15.271C22.6015 15.1036 22.6372 14.9241 22.6372 14.743C22.6372 14.5618 22.6015 14.3823 22.5322 14.2149C22.4628 14.0475 22.3612 13.8954 22.2331 13.7673C22.1049 13.6392 21.9528 13.5375 21.7854 13.4682C21.618 13.3988 21.4386 13.3632 21.2574 13.3632C21.0762 13.3632 20.8968 13.3988 20.7294 13.4682C20.562 13.5375 20.4099 13.6392 20.2817 13.7673L12.0134 22.0356C11.8851 22.1636 11.7833 22.3157 11.7138 22.4831C11.6443 22.6505 11.6086 22.83 11.6086 23.0113C11.6086 23.1925 11.6443 23.372 11.7138 23.5394C11.7833 23.7069 11.8851 23.8589 12.0134 23.9869L20.2817 32.2553C20.4099 32.3834 20.562 32.485 20.7294 32.5544C20.8968 32.6237 21.0762 32.6594 21.2574 32.6594C21.4386 32.6594 21.618 32.6237 21.7854 32.5544C21.9528 32.485 22.1049 32.3834 22.2331 32.2553C22.3612 32.1271 22.4628 31.975 22.5322 31.8076C22.6015 31.6402 22.6372 31.4608 22.6372 31.2796C22.6372 31.0984 22.6015 30.919 22.5322 30.7516C22.4628 30.5842 22.3612 30.4321 22.2331 30.3039L16.3157 24.3893H32.2818Z" fill="black"/>
</svg>
